<svg
    xmlns="http://www.w3.org/2000/svg"
    viewBox="0 0 24 24"
    id="vector">
    <path
        id="path"
        d="M 0 0 L 24 0 L 24 24 L 0 24 Z"
        fill="#000000"
        fill-opacity="0"
        stroke-opacity="0"/>
    <path
        id="path_3"
        d="M 12 1.25 C 6.072 1.25 1.25 6.072 1.25 12 C 1.25 17.928 6.072 22.75 12 22.75 C 17.928 22.75 22.75 17.928 22.75 12 C 22.75 6.072 17.928 1.25 12 1.25 Z M 16 12.75 L 12.75 12.75 L 12.75 16 C 12.75 16.414 12.414 16.75 12 16.75 C 11.586 16.75 11.25 16.414 11.25 16 L 11.25 12.75 L 8 12.75 C 7.586 12.75 7.25 12.414 7.25 12 C 7.25 11.586 7.586 11.25 8 11.25 L 11.25 11.25 L 11.25 8 C 11.25 7.586 11.586 7.25 12 7.25 C 12.414 7.25 12.75 7.586 12.75 8 L 12.75 11.25 L 16 11.25 C 16.414 11.25 16.75 11.586 16.75 12 C 16.75 12.414 16.414 12.75 16 12.75 Z"
        fill="#000000"/>
</svg>
