<svg
    xmlns="http://www.w3.org/2000/svg"
    viewBox="0 0 24 24"
    id="vector">
    <path
        id="path"
        d="M 19.75 11 L 13 11 L 13 4.25 C 13 3.697 12.553 3.25 12 3.25 C 11.447 3.25 11 3.697 11 4.25 L 11 11 L 4.25 11 C 3.697 11 3.25 11.447 3.25 12 C 3.25 12.553 3.697 13 4.25 13 L 11 13 L 11 19.75 C 11 20.303 11.447 20.75 12 20.75 C 12.553 20.75 13 20.303 13 19.75 L 13 13 L 19.75 13 C 20.303 13 20.75 12.553 20.75 12 C 20.75 11.447 20.303 11 19.75 11 Z"
        fill="#000000"/>
</svg>
