<svg
    xmlns="http://www.w3.org/2000/svg"
    viewBox="0 0 24 24"
    id="vector">
    <path
        id="path"
        d="M 12 21.638 L 11.986 21.638 C 9.403 21.59 1.95 14.856 1.95 8.478 C 1.95 5.414 4.475 2.724 7.353 2.724 C 9.643 2.724 11.183 4.304 11.999 5.454 C 12.813 4.306 14.353 2.724 16.644 2.724 C 19.524 2.724 22.048 5.414 22.048 8.479 C 22.048 14.855 14.594 21.589 12.011 21.636 L 12 21.636 Z M 7.354 4.225 C 5.274 4.225 3.451 6.213 3.451 8.48 C 3.451 14.22 10.485 20.076 12.001 20.138 C 13.519 20.076 20.551 14.221 20.551 8.48 C 20.551 6.213 18.728 4.225 16.648 4.225 C 14.12 4.225 12.708 7.161 12.696 7.19 C 12.466 7.752 11.54 7.752 11.309 7.19 C 11.295 7.16 9.884 4.225 7.355 4.225 Z"
        fill="#000000"/>
</svg>
