<svg
    xmlns="http://www.w3.org/2000/svg"
    viewBox="0 0 24 24"
    id="vector">
    <path
        id="path"
        d="M 6.016 16.97 L 4.486 18.5 C 4.336 18.64 4.146 18.72 3.956 18.72 C 3.766 18.72 3.576 18.64 3.426 18.5 C 3.136 18.21 3.136 17.73 3.426 17.44 L 4.956 15.9 C 5.256 15.61 5.726 15.61 6.016 15.9 C 6.316 16.2 6.316 16.67 6.016 16.97 Z"
        fill="#000000"/>
    <path
        id="path_3"
        d="M 8.136 19.09 L 4.496 22.73 C 4.346 22.88 4.156 22.95 3.966 22.95 C 3.776 22.95 3.586 22.88 3.436 22.73 C 3.146 22.44 3.146 21.96 3.436 21.67 L 7.076 18.03 C 7.376 17.73 7.846 17.73 8.136 18.03 C 8.436 18.32 8.436 18.79 8.136 19.09 Z"
        fill="#000000"/>
    <path
        id="path_4"
        d="M 22.306 1.49 C 22.026 1.21 21.646 1.05 21.246 1.05 C 21.246 1.05 21.156 1.05 21.116 1.06 C 16.806 1.44 12.746 3.38 9.716 6.51 L 9.706 6.51 C 7.026 7.05 4.586 8.37 2.616 10.35 L 1.686 11.28 C 1.226 11.75 1.116 12.46 1.416 13.04 C 1.686 13.54 2.196 13.84 2.746 13.84 C 2.836 13.84 2.926 13.83 3.016 13.81 L 6.996 13.08 C 7.586 14.05 9.256 15.95 10.816 16.86 L 10.086 20.91 C 9.966 21.55 10.286 22.2 10.866 22.5 C 11.086 22.62 11.326 22.67 11.556 22.67 C 11.956 22.67 12.336 22.52 12.626 22.23 L 13.566 21.29 C 15.526 19.3 16.836 16.81 17.366 14.08 L 17.436 14.02 C 17.436 14.01 17.476 13.98 17.476 13.97 C 20.486 10.94 22.356 6.93 22.746 2.68 C 22.786 2.24 22.626 1.8 22.306 1.49 Z M 16.416 12.92 C 16.266 13.06 16.116 13.2 15.976 13.34 L 15.976 13.36 C 15.566 15.96 14.346 18.36 12.496 20.23 L 11.566 21.17 L 12.446 16.28 C 12.486 16.06 12.366 15.86 12.166 15.76 C 11.136 15.26 8.516 12.89 8.046 11.79 C 7.956 11.56 7.726 11.42 7.486 11.46 L 2.746 12.34 L 3.676 11.4 C 5.526 9.55 7.906 8.31 10.466 7.9 C 10.606 7.73 10.766 7.57 10.926 7.42 C 13.806 4.52 17.476 2.89 21.246 2.55 C 20.906 6.32 19.296 10.02 16.416 12.92 Z"
        fill="#000000"/>
    <path
        id="path_5"
        d="M 17.546 6.36 C 16.666 5.48 15.246 5.48 14.366 6.36 C 13.486 7.24 13.486 8.67 14.366 9.54 C 15.246 10.42 16.666 10.42 17.546 9.54 C 18.426 8.67 18.426 7.24 17.546 6.36 Z M 16.486 8.48 C 16.196 8.78 15.716 8.78 15.426 8.48 C 15.136 8.19 15.136 7.71 15.426 7.42 C 15.716 7.13 16.196 7.13 16.486 7.42 C 16.776 7.71 16.776 8.19 16.486 8.48 Z"
        fill="#000000"/>
</svg>
