<svg
    xmlns="http://www.w3.org/2000/svg"
    viewBox="0 0 24 24"
    id="vector">
    <path
        id="path"
        d="M 12.003 23.274 C 11.92 23.274 11.836 23.26 11.755 23.232 C 11.455 23.127 11.253 22.842 11.253 22.524 L 11.253 18.384 C 9.173 18.212 7.24 17.318 5.747 15.824 C 2.297 12.374 2.297 6.762 5.747 3.314 C 9.197 -0.134 14.809 -0.136 18.259 3.314 C 21.355 6.411 21.709 11.384 19.079 14.879 L 12.589 22.991 C 12.443 23.173 12.226 23.273 12.002 23.273 Z M 12.003 2.224 C 10.121 2.224 8.24 2.941 6.808 4.374 C 3.944 7.237 3.944 11.898 6.808 14.764 C 8.196 16.151 10.041 16.914 12.003 16.914 C 12.417 16.914 12.753 17.251 12.753 17.664 L 12.753 20.384 L 17.895 13.959 C 20.065 11.074 19.771 6.945 17.199 4.372 C 15.765 2.942 13.883 2.224 12.002 2.224 Z"
        fill="#000000"/>
    <path
        id="path_1"
        d="M 15.55 8.7 L 8.45 8.7 C 8.037 8.7 7.7 8.363 7.7 7.95 C 7.7 7.537 8.037 7.2 8.45 7.2 L 15.55 7.2 C 15.963 7.2 16.3 7.535 16.3 7.95 C 16.3 8.365 15.963 8.7 15.55 8.7 Z M 12.5 11.938 L 8.45 11.938 C 8.037 11.938 7.7 11.602 7.7 11.188 C 7.7 10.774 8.037 10.438 8.45 10.438 L 12.5 10.438 C 12.914 10.438 13.25 10.774 13.25 11.188 C 13.25 11.602 12.914 11.938 12.5 11.938 Z"
        fill="#000000"/>
</svg>
