<svg
    xmlns="http://www.w3.org/2000/svg"
    viewBox="0 0 24 24"
    id="vector">
    <path
        id="path"
        d="M 8.98 22.698 C 8.877 22.698 8.775 22.678 8.678 22.635 C 8.368 22.5 8.188 22.175 8.238 21.841 L 9.466 13.314 L 6.542 13.314 C 6.322 13.314 6.112 13.216 5.969 13.048 C 5.825 12.878 5.765 12.655 5.802 12.438 L 7.49 2.5 C 7.552 2.14 7.863 1.875 8.23 1.875 L 15.04 1.875 C 15.27 1.875 15.487 1.98 15.63 2.16 C 15.772 2.34 15.824 2.575 15.77 2.8 L 14.324 8.875 L 19 8.875 C 19.29 8.875 19.553 9.041 19.678 9.303 C 19.802 9.565 19.765 9.873 19.582 10.099 L 9.562 22.42 C 9.416 22.6 9.2 22.696 8.979 22.696 Z M 7.43 11.812 L 10.333 11.812 C 10.551 11.812 10.758 11.907 10.9 12.072 C 11.042 12.236 11.106 12.454 11.075 12.67 L 10.109 19.37 L 17.422 10.375 L 13.372 10.375 C 13.144 10.375 12.927 10.27 12.784 10.09 C 12.642 9.91 12.59 9.675 12.644 9.45 L 14.09 3.375 L 8.864 3.375 L 7.43 11.812 Z"
        fill="#000000"/>
</svg>
