<svg
    xmlns="http://www.w3.org/2000/svg"
    viewBox="0 0 24 24"
    id="vector">
    <path
        id="path_1"
        d="M 21 3.25 L 6 3.25 C 4.76 3.25 3.75 4.26 3.75 5.5 L 3.75 6.25 L 3 6.25 C 1.76 6.25 0.75 7.26 0.75 8.5 L 0.75 18.5 C 0.75 19.74 1.76 20.75 3 20.75 L 18 20.75 C 19.24 20.75 20.25 19.74 20.25 18.5 L 20.25 17.75 L 21 17.75 C 22.24 17.75 23.25 16.74 23.25 15.5 L 23.25 5.5 C 23.25 4.26 22.24 3.25 21 3.25 Z M 2.25 8.5 C 2.25 8.087 2.587 7.75 3 7.75 L 4.654 7.75 C 4.37 8.938 3.438 9.87 2.25 10.154 L 2.25 8.5 Z M 3 19.25 C 2.587 19.25 2.25 18.913 2.25 18.5 L 2.25 16.846 C 3.438 17.129 4.37 18.062 4.654 19.25 L 3 19.25 Z M 18.75 18.5 C 18.75 18.913 18.413 19.25 18 19.25 L 16.346 19.25 C 16.629 18.062 17.562 17.13 18.75 16.846 L 18.75 18.5 Z M 18.75 15.326 C 16.734 15.649 15.15 17.234 14.826 19.25 L 6.174 19.25 C 5.851 17.234 4.266 15.65 2.25 15.326 L 2.25 11.674 C 4.266 11.351 5.85 9.766 6.174 7.75 L 14.826 7.75 C 15.149 9.766 16.734 11.35 18.75 11.674 L 18.75 15.326 Z M 18.75 10.154 C 17.562 9.871 16.63 8.938 16.346 7.75 L 18 7.75 C 18.413 7.75 18.75 8.087 18.75 8.5 L 18.75 10.154 Z M 21.75 15.5 C 21.75 15.913 21.413 16.25 21 16.25 L 20.25 16.25 L 20.25 8.5 C 20.25 7.26 19.24 6.25 18 6.25 L 5.25 6.25 L 5.25 5.5 C 5.25 5.087 5.587 4.75 6 4.75 L 21 4.75 C 21.413 4.75 21.75 5.087 21.75 5.5 L 21.75 15.5 Z"
        fill="#000000"/>
    <path
        id="path_2"
        d="M 10.5 9.316 C 8.622 9.316 7.094 11.193 7.094 13.5 C 7.094 15.807 8.622 17.684 10.5 17.684 C 12.378 17.684 13.906 15.807 13.906 13.5 C 13.906 11.193 12.378 9.316 10.5 9.316 Z M 10.5 16.184 C 9.467 16.184 8.594 14.954 8.594 13.5 C 8.594 12.046 9.467 10.816 10.5 10.816 C 11.533 10.816 12.406 12.046 12.406 13.5 C 12.406 14.954 11.533 16.184 10.5 16.184 Z"
        fill="#000000"/>
</svg>
