<svg
    xmlns="http://www.w3.org/2000/svg"
    viewBox="0 0 24 24"
    id="vector">
    <path
        id="path_2"
        d="M 19.9 23.5 C 19.743 23.5 19.588 23.45 19.458 23.356 L 12 17.928 L 4.542 23.358 C 4.314 23.522 4.012 23.548 3.76 23.418 C 3.51 23.291 3.35 23.033 3.35 22.751 L 3.35 5.6 C 3.35 4.36 4.36 3.35 5.6 3.35 L 18.398 3.35 C 19.638 3.35 20.648 4.36 20.648 5.6 L 20.648 22.75 C 20.648 23.032 20.49 23.29 20.238 23.418 C 20.132 23.473 20.015 23.5 19.898 23.5 Z M 12 16.25 C 12.155 16.25 12.31 16.298 12.44 16.394 L 19.15 21.277 L 19.15 5.6 C 19.15 5.188 18.813 4.85 18.4 4.85 L 5.6 4.85 C 5.187 4.85 4.85 5.188 4.85 5.6 L 4.85 21.277 L 11.56 16.394 C 11.69 16.298 11.845 16.25 12 16.25 Z"
        fill="#000000"/>
</svg>
