<svg
    xmlns="http://www.w3.org/2000/svg"
    viewBox="0 0 24 24"
    id="vector">
    <path
        id="path"
        d="M 18.466 14.928 C 17.348 14.928 16.36 15.453 15.701 16.256 L 9.114 12.898 C 9.18 12.628 9.224 12.348 9.224 12.056 C 9.224 11.769 9.182 11.494 9.118 11.226 L 15.693 7.906 C 16.351 8.716 17.343 9.246 18.467 9.246 C 20.445 9.246 22.053 7.64 22.053 5.666 C 22.053 3.692 20.445 2.086 18.467 2.086 C 16.489 2.086 14.881 3.692 14.881 5.666 C 14.881 5.98 14.935 6.28 15.011 6.57 L 8.463 9.876 C 7.807 9.03 6.791 8.476 5.639 8.476 C 3.659 8.476 2.051 10.082 2.051 12.056 C 2.051 14.03 3.661 15.636 5.638 15.636 C 6.784 15.636 7.796 15.086 8.453 14.246 L 15.013 17.589 C 14.933 17.883 14.878 18.187 14.878 18.507 C 14.878 20.481 16.486 22.087 18.464 22.087 C 20.442 22.087 22.05 20.481 22.05 18.507 C 22.05 16.533 20.44 14.927 18.464 14.927 Z M 18.466 3.588 C 19.616 3.588 20.552 4.52 20.552 5.666 C 20.552 6.812 19.616 7.746 18.466 7.746 C 17.316 7.746 16.38 6.812 16.38 5.666 C 16.38 4.52 17.315 3.586 18.466 3.586 Z M 5.64 14.134 C 4.49 14.134 3.552 13.201 3.552 12.054 C 3.552 10.907 4.489 9.974 5.639 9.974 C 6.789 9.974 7.724 10.909 7.724 12.054 C 7.724 13.199 6.788 14.134 5.638 14.134 Z M 18.466 20.586 C 17.316 20.586 16.38 19.653 16.38 18.506 C 16.38 17.359 17.316 16.426 18.466 16.426 C 19.616 16.426 20.552 17.361 20.552 18.506 C 20.552 19.651 19.616 20.586 18.466 20.586 Z"
        fill="#000000"/>
</svg>
