<svg
    xmlns="http://www.w3.org/2000/svg"
    viewBox="0 0 32 32"
    id="vector">
    <path
        id="path"
        d="M 30 9.9 L 16.6 2.7 C 16.2 2.5 15.8 2.5 15.3 2.7 L 2 9.9 C 1.4 10.2 1.2 11.1 1.5 11.7 C 1.7 12.1 2.2 12.4 2.7 12.4 C 2.9 12.4 3.1 12.4 3.3 12.2 L 4.2 11.7 L 6.3 26.6 C 6.6 28.2 8.1 29.3 9.9 29.3 L 22.2 29.3 C 24 29.3 25.5 28.1 25.8 26.6 L 27.9 11.8 L 28.8 12.3 C 29.4 12.6 30.3 12.4 30.6 11.8 C 30.9 11.1 30.6 10.2 30 9.9 L 30 9.9 Z M 16 20.6 C 13.6 20.6 11.7 18.7 11.7 16.3 C 11.7 13.9 13.6 12 16 12 C 18.4 12 20.3 13.9 20.3 16.3 C 20.3 18.6 18.4 20.6 16 20.6 Z"
        fill="#000000"/>
</svg>
