<svg
    xmlns="http://www.w3.org/2000/svg"
    viewBox="0 0 32 32"
    id="vector">
    <path
        id="path"
        d="M 25.6 4.1 L 6.4 4.1 C 4.4 4.1 2.7 5.7 2.7 7.7 L 2.7 24.2 C 2.7 26.2 4.4 27.9 6.4 27.9 L 25.6 27.9 C 27.6 27.9 29.3 26.2 29.3 24.2 L 29.3 7.7 C 29.2 5.7 27.5 4.1 25.6 4.1 Z M 6.4 6.1 L 25.6 6.1 C 26.5 6.1 27.3 6.8 27.3 7.8 L 27.3 8.6 L 16.7 15.7 C 16.4 15.9 15.9 15.9 15.5 15.7 L 4.8 8.6 L 4.8 7.7 C 4.8 6.9 5.5 6.1 6.4 6.1 Z M 25.6 26 L 6.4 26 C 5.5 26 4.7 25.3 4.7 24.3 L 4.7 11.1 L 14.3 17.5 C 14.8 17.8 15.3 18 16 18 C 16.7 18 17.2 17.8 17.7 17.5 L 27.3 11.1 L 27.3 24.3 C 27.2 25.2 26.5 26 25.6 26 L 25.6 26 Z"
        fill="#000000"/>
</svg>
