<svg
    xmlns="http://www.w3.org/2000/svg"
    viewBox="0 0 32 32"
    id="vector">
    <path
        id="path"
        d="M 28.8 21.9 C 28.8 21.9 26 19.7 26.1 13.9 C 26.1 10.5 25 7.6 23 5.5 C 21.2 3.6 18.7 2.7 16.1 2.7 L 16.1 2.7 C 13.5 2.7 11 3.8 9.2 5.5 C 7.2 7.6 6 10.5 6 13.9 C 6 19.7 3.4 21.8 3.3 21.9 C 3 22.1 2.8 22.6 3 23.1 C 3.1 23.5 3.5 23.7 3.9 23.7 L 9.8 23.7 C 9.9 27.1 12.7 29.8 16.1 29.8 C 19.5 29.8 22.3 27.1 22.4 23.7 L 28.4 23.7 C 28.8 23.7 29.2 23.4 29.3 23.1 C 29.3 22.6 29.1 22.1 28.8 21.9 Z M 16 27.1 C 14.1 27.1 12.5 25.6 12.3 23.6 L 19.5 23.6 C 19.5 25.5 17.9 27 16 27.1 L 16 27.1 Z"
        fill="#000000"/>
</svg>
