<svg
    xmlns="http://www.w3.org/2000/svg"
    viewBox="0 0 32 32"
    id="vector">
    <path
        id="path"
        d="M 28.6 27.2 L 23.8 22.4 C 25.6 20.3 26.6 17.7 26.6 14.7 C 26.6 8.1 21.2 2.8 14.7 2.8 C 8.2 2.8 2.7 8.1 2.7 14.7 C 2.7 21.3 8.1 26.6 14.6 26.6 C 17.5 26.6 20.2 25.6 22.3 23.8 L 27.1 28.6 C 27.3 28.8 27.5 28.9 27.8 28.9 C 28.1 28.9 28.3 28.8 28.5 28.6 C 29 28.3 29 27.7 28.6 27.2 Z M 4.8 14.7 C 4.8 9.2 9.2 4.8 14.7 4.8 C 20.2 4.8 24.6 9.2 24.6 14.7 C 24.6 20.2 20.2 24.6 14.7 24.6 C 9.2 24.6 4.8 20.2 4.8 14.7 Z"
        fill="#000000"/>
</svg>
