<svg
    xmlns="http://www.w3.org/2000/svg"
    viewBox="0 0 24 24"
    id="vector">
    <path
        id="path"
        d="M 3.558 14.713 C 3.398 14.183 2.842 13.883 2.313 14.043 C 1.783 14.203 1.483 14.759 1.643 15.288 C 2.963 19.69 7.038 23 12 23 C 16.962 23 21.037 19.69 22.358 15.287 C 22.518 14.757 22.216 14.2 21.688 14.042 C 21.16 13.884 20.602 14.182 20.443 14.712 C 19.363 18.31 16.038 21 12 21 C 7.962 21 4.637 18.31 3.558 14.713 Z"
        fill="#000000"/>
    <path
        id="path_1"
        d="M 12 1.25 C 8.134 1.25 5 4.384 5 8.25 L 5 12.25 C 5 16.116 8.134 19.25 12 19.25 C 15.866 19.25 19 16.116 19 12.25 L 19 8.25 C 19 4.384 15.866 1.25 12 1.25 Z M 9.75 11.5 C 9.75 11.914 9.414 12.25 9 12.25 C 8.586 12.25 8.25 11.914 8.25 11.5 L 8.25 9 C 8.25 8.586 8.586 8.25 9 8.25 C 9.414 8.25 9.75 8.586 9.75 9 L 9.75 11.5 Z M 12.75 12.5 C 12.75 12.914 12.414 13.25 12 13.25 C 11.586 13.25 11.25 12.914 11.25 12.5 L 11.25 8 C 11.25 7.586 11.586 7.25 12 7.25 C 12.414 7.25 12.75 7.586 12.75 8 L 12.75 12.5 Z M 15.75 11.5 C 15.75 11.914 15.414 12.25 15 12.25 C 14.586 12.25 14.25 11.914 14.25 11.5 L 14.25 9 C 14.25 8.586 14.586 8.25 15 8.25 C 15.414 8.25 15.75 8.586 15.75 9 L 15.75 11.5 Z"
        fill="#000000"/>
</svg>
