<svg
    xmlns="http://www.w3.org/2000/svg"
    viewBox="0 0 24 24"
    id="vector">
    <path
        id="path"
        d="M 3.318 14.785 C 3.198 14.388 2.781 14.163 2.384 14.282 C 1.987 14.402 1.762 14.819 1.881 15.216 C 3.18 19.518 7.16 22.75 12 22.75 C 16.846 22.75 20.828 19.518 22.118 15.215 C 22.238 14.818 22.012 14.4 21.615 14.281 C 21.218 14.171 20.8 14.391 20.681 14.791 C 19.581 18.491 16.161 21.259 12.001 21.259 C 7.851 21.259 4.431 18.492 3.321 14.795 Z"
        fill="#000000"/>
    <path
        id="path_1"
        d="M 15 8.25 C 14.586 8.25 14.25 8.586 14.25 9 L 14.25 11.5 C 14.25 11.914 14.586 12.25 15 12.25 C 15.414 12.25 15.75 11.914 15.75 11.5 L 15.75 9 C 15.75 8.586 15.414 8.25 15 8.25 Z"
        fill="#000000"/>
    <path
        id="path_2"
        d="M 12 7.25 C 11.586 7.25 11.25 7.586 11.25 8 L 11.25 12.5 C 11.25 12.914 11.586 13.25 12 13.25 C 12.414 13.25 12.75 12.914 12.75 12.5 L 12.75 8 C 12.75 7.586 12.414 7.25 12 7.25 Z"
        fill="#000000"/>
    <path
        id="path_3"
        d="M 9 8.25 C 8.586 8.25 8.25 8.586 8.25 9 L 8.25 11.5 C 8.25 11.914 8.586 12.25 9 12.25 C 9.414 12.25 9.75 11.914 9.75 11.5 L 9.75 9 C 9.75 8.586 9.414 8.25 9 8.25 Z"
        fill="#000000"/>
    <path
        id="path_4"
        d="M 12 1.25 C 8.134 1.25 5 4.384 5 8.25 L 5 12.25 C 5 16.116 8.134 19.25 12 19.25 C 15.866 19.25 19 16.116 19 12.25 L 19 8.25 C 19 4.384 15.866 1.25 12 1.25 Z M 17.5 12.25 C 17.5 15.288 15.038 17.75 12 17.75 C 8.962 17.75 6.5 15.288 6.5 12.25 L 6.5 8.25 C 6.5 5.212 8.962 2.75 12 2.75 C 15.038 2.75 17.5 5.212 17.5 8.25 L 17.5 12.25 Z"
        fill="#000000"/>
</svg>
