<svg
    xmlns="http://www.w3.org/2000/svg"
    viewBox="0 0 32 32"
    id="vector">
    <path
        id="path"
        d="M 29.9 10.1 L 16.4 2.9 C 16.1 2.7 15.8 2.7 15.5 2.9 L 2.1 10.1 C 1.6 10.3 1.5 10.9 1.7 11.5 C 1.9 11.8 2.2 12 2.6 12 C 2.8 12 2.9 12 3 11.9 L 4 11.3 L 6.3 26.5 C 6.6 28.1 8 29.2 9.8 29.2 L 22.1 29.2 C 23.9 29.2 25.4 28 25.7 26.5 L 27.8 11.3 L 28.8 11.9 C 29.3 12.1 29.8 12 30.2 11.5 C 30.5 11 30.3 10.4 29.9 10.1 Z M 23.7 26.2 C 23.6 27 22.8 27.2 22.1 27.2 L 9.9 27.2 C 9.3 27.2 8.4 26.9 8.3 26.2 L 6 10.3 L 16 4.8 L 26 10.2 L 23.7 26.2 Z"
        fill="#000000"/>
    <path
        id="path_1"
        d="M 11 16.2 C 11 18.9 13.2 21.2 16 21.2 C 18.8 21.2 21 19 21 16.2 C 21 13.4 18.8 11.2 16 11.2 C 13.2 11.2 11 13.5 11 16.2 Z M 19 16.2 C 19 17.9 17.6 19.2 16 19.2 C 14.4 19.2 13 17.8 13 16.2 C 13 14.6 14.4 13.2 16 13.2 C 17.6 13.2 19 14.5 19 16.2 Z"
        fill="#000000"/>
</svg>
