<svg
    xmlns="http://www.w3.org/2000/svg"
    viewBox="0 0 32 32"
    id="vector">
    <path
        id="path"
        d="M 15.4 16 C 15.7 16.2 16.2 16.2 16.6 16 L 29.2 7.6 L 29.2 7.3 C 29.2 5.6 27.8 4.4 26.3 4.4 L 5.7 4.4 C 4 4.3 2.8 5.7 2.8 7.3 L 2.8 7.6 L 15.4 16 Z"
        fill="#000000"/>
    <path
        id="path_1"
        d="M 17.7 17.7 C 17.2 18 16.6 18.2 16 18.2 C 15.4 18.2 14.8 18 14.3 17.7 L 2.8 9.9 L 2.8 25.3 C 2.8 27 4.2 28.2 5.7 28.2 L 26.2 28.2 C 27.9 28.2 29.1 26.8 29.1 25.3 L 29.1 9.9 L 17.7 17.7 L 17.7 17.7 Z"
        fill="#000000"/>
</svg>
