<svg
    xmlns="http://www.w3.org/2000/svg"
    viewBox="0 0 32 32"
    id="vector">
    <path
        id="path"
        d="M 28.8 21.9 C 28.8 21.9 26 19.7 26.1 13.9 C 26.1 10.5 25.1 7.6 23 5.5 C 21.2 3.6 18.7 2.7 16.1 2.7 L 16.1 2.7 C 13.5 2.7 11 3.8 9.2 5.5 C 7.2 7.6 6.1 10.5 6.1 13.9 C 6.1 19.7 3.5 21.8 3.4 21.9 C 3.1 22.1 2.9 22.6 3.1 23.1 C 3.2 23.5 3.6 23.7 4 23.7 L 10.5 23.7 C 10.6 26.7 13.1 29.2 16.3 29.2 C 19.5 29.2 21.9 26.8 22.1 23.7 L 28.6 23.7 C 29 23.7 29.4 23.4 29.5 23.1 C 29.3 22.6 29.1 22.2 28.8 21.9 L 28.8 21.9 Z M 16 27.2 C 14 27.2 12.4 25.6 12.2 23.7 L 19.7 23.7 C 19.6 25.7 18 27.2 16 27.2 L 16 27.2 Z M 5.9 21.8 C 6.8 20.3 8 17.8 7.9 14 C 7.9 11.2 8.7 8.7 10.4 7.1 C 11.9 5.5 13.9 4.7 16 4.7 C 18.1 4.7 20.1 5.5 21.6 7 C 23.3 8.7 24.1 11.1 24.1 13.9 C 24.1 17.7 25.1 20.2 26.1 21.7 L 5.9 21.8 L 5.9 21.8 Z"
        fill="#000000"/>
</svg>
