<svg
    xmlns="http://www.w3.org/2000/svg"
    viewBox="0 0 32 32"
    id="vector">
    <path
        id="path"
        d="M 29.2 26.4 L 24.3 21.5 C 25.7 19.5 26.5 17.2 26.5 14.6 C 26.5 8 21.1 2.7 14.6 2.7 C 8.1 2.7 2.6 8.1 2.6 14.7 C 2.6 21.3 8 26.6 14.6 26.6 C 17.1 26.6 19.5 25.8 21.5 24.4 L 26.4 29.3 C 26.8 29.7 27.3 29.9 27.8 29.9 C 28.3 29.9 28.9 29.7 29.2 29.3 C 30 28.5 30 27.2 29.2 26.4 Z M 14.6 22.5 C 10.2 22.5 6.6 18.9 6.6 14.5 C 6.6 10.1 10.2 6.5 14.6 6.5 C 19 6.5 22.6 10.1 22.6 14.5 C 22.6 18.9 18.9 22.5 14.6 22.5 Z"
        fill="#000000"/>
</svg>
