<svg
    xmlns="http://www.w3.org/2000/svg"
    viewBox="0 0 24 24"
    id="vector">
    <path
        id="path"
        d="M 16.56 7.94 L 18.44 7.94 C 18.716 7.94 18.94 7.716 18.94 7.44 L 18.94 5.56 C 18.94 5.284 18.716 5.06 18.44 5.06 L 16.56 5.06 C 16.284 5.06 16.06 5.284 16.06 5.56 L 16.06 7.44 C 16.06 7.716 16.284 7.94 16.56 7.94 Z"
        fill="#000000"/>
    <path
        id="path_1"
        d="M 20.25 11 L 14.75 11 C 13.785 11 13 10.215 13 9.25 L 13 3.75 C 13 2.785 13.785 2 14.75 2 L 20.25 2 C 21.215 2 22 2.785 22 3.75 L 22 9.25 C 22 10.215 21.215 11 20.25 11 Z M 14.75 3.5 C 14.612 3.5 14.5 3.612 14.5 3.75 L 14.5 9.25 C 14.5 9.388 14.612 9.5 14.75 9.5 L 20.25 9.5 C 20.388 9.5 20.5 9.388 20.5 9.25 L 20.5 3.75 C 20.5 3.612 20.388 3.5 20.25 3.5 L 14.75 3.5 Z M 5.56 7.94 L 7.44 7.94 C 7.716 7.94 7.94 7.716 7.94 7.44 L 7.94 5.56 C 7.94 5.284 7.716 5.06 7.44 5.06 L 5.56 5.06 C 5.284 5.06 5.06 5.284 5.06 5.56 L 5.06 7.44 C 5.06 7.716 5.284 7.94 5.56 7.94 Z"
        fill="#000000"/>
    <path
        id="path_2"
        d="M 9.25 11 L 3.75 11 C 2.785 11 2 10.215 2 9.25 L 2 3.75 C 2 2.785 2.785 2 3.75 2 L 9.25 2 C 10.215 2 11 2.785 11 3.75 L 11 9.25 C 11 10.215 10.215 11 9.25 11 Z M 3.75 3.5 C 3.612 3.5 3.5 3.612 3.5 3.75 L 3.5 9.25 C 3.5 9.388 3.612 9.5 3.75 9.5 L 9.25 9.5 C 9.388 9.5 9.5 9.388 9.5 9.25 L 9.5 3.75 C 9.5 3.612 9.388 3.5 9.25 3.5 L 3.75 3.5 Z M 13.5 16 L 15.5 16 C 15.776 16 16 15.776 16 15.5 L 16 13.5 C 16 13.224 15.776 13 15.5 13 L 13.5 13 C 13.224 13 13 13.224 13 13.5 L 13 15.5 C 13 15.776 13.224 16 13.5 16 Z M 19.5 16 L 21.5 16 C 21.776 16 22 15.776 22 15.5 L 22 13.5 C 22 13.224 21.776 13 21.5 13 L 19.5 13 C 19.224 13 19 13.224 19 13.5 L 19 15.5 C 19 15.776 19.224 16 19.5 16 Z M 13.5 22 L 15.5 22 C 15.776 22 16 21.776 16 21.5 L 16 19.5 C 16 19.224 15.776 19 15.5 19 L 13.5 19 C 13.224 19 13 19.224 13 19.5 L 13 21.5 C 13 21.776 13.224 22 13.5 22 Z M 19.5 22 L 21.5 22 C 21.776 22 22 21.776 22 21.5 L 22 19.5 C 22 19.224 21.776 19 21.5 19 L 19.5 19 C 19.224 19 19 19.224 19 19.5 L 19 21.5 C 19 21.776 19.224 22 19.5 22 Z M 16.5 19 L 18.5 19 C 18.776 19 19 18.776 19 18.5 L 19 16.5 C 19 16.224 18.776 16 18.5 16 L 16.5 16 C 16.224 16 16 16.224 16 16.5 L 16 18.5 C 16 18.776 16.224 19 16.5 19 Z M 5.56 18.94 L 7.44 18.94 C 7.716 18.94 7.94 18.716 7.94 18.44 L 7.94 16.56 C 7.94 16.284 7.716 16.06 7.44 16.06 L 5.56 16.06 C 5.284 16.06 5.06 16.284 5.06 16.56 L 5.06 18.44 C 5.06 18.716 5.284 18.94 5.56 18.94 Z"
        fill="#000000"/>
    <path
        id="path_3"
        d="M 9.25 22 L 3.75 22 C 2.785 22 2 21.215 2 20.25 L 2 14.75 C 2 13.785 2.785 13 3.75 13 L 9.25 13 C 10.215 13 11 13.785 11 14.75 L 11 20.25 C 11 21.215 10.215 22 9.25 22 Z M 3.75 14.5 C 3.612 14.5 3.5 14.612 3.5 14.75 L 3.5 20.25 C 3.5 20.388 3.612 20.5 3.75 20.5 L 9.25 20.5 C 9.388 20.5 9.5 20.388 9.5 20.25 L 9.5 14.75 C 9.5 14.612 9.388 14.5 9.25 14.5 L 3.75 14.5 Z"
        fill="#000000"/>
</svg>
