<svg
    xmlns="http://www.w3.org/2000/svg"
    viewBox="0 0 24 24"
    id="vector">
    <path
        id="path_3"
        d="M 19.75 22 L 4.25 22 C 3.01 22 2 20.99 2 19.75 L 2 4.25 C 2 3.01 3.01 2 4.25 2 L 19.75 2 C 20.99 2 22 3.01 22 4.25 L 22 19.75 C 22 20.99 20.99 22 19.75 22 Z M 4.25 3.5 C 3.836 3.5 3.5 3.837 3.5 4.25 L 3.5 19.75 C 3.5 20.163 3.836 20.5 4.25 20.5 L 19.75 20.5 C 20.164 20.5 20.5 20.163 20.5 19.75 L 20.5 4.25 C 20.5 3.837 20.164 3.5 19.75 3.5 L 4.25 3.5 Z"
        fill="#000000"/>
    <path
        id="path_4"
        d="M 17 8.64 L 7 8.64 C 6.586 8.64 6.25 8.303 6.25 7.89 C 6.25 7.477 6.586 7.14 7 7.14 L 17 7.14 C 17.414 7.14 17.75 7.475 17.75 7.89 C 17.75 8.305 17.414 8.64 17 8.64 Z M 17 12.75 L 7 12.75 C 6.586 12.75 6.25 12.414 6.25 12 C 6.25 11.586 6.586 11.25 7 11.25 L 17 11.25 C 17.414 11.25 17.75 11.586 17.75 12 C 17.75 12.414 17.414 12.75 17 12.75 Z M 12 16.86 L 7 16.86 C 6.586 16.86 6.25 16.525 6.25 16.11 C 6.25 15.695 6.586 15.36 7 15.36 L 12 15.36 C 12.414 15.36 12.75 15.697 12.75 16.11 C 12.75 16.523 12.414 16.86 12 16.86 Z"
        fill="#000000"/>
</svg>
