<svg
    xmlns="http://www.w3.org/2000/svg"
    viewBox="0 0 26 26"
    id="vector">
    <path
        id="path_1"
        d="M 13 20.673 C 12.586 20.673 12.25 20.337 12.25 19.923 L 12.25 14.46 C 12.25 14.046 12.586 13.71 13 13.71 C 13.414 13.71 13.75 14.046 13.75 14.46 L 13.75 19.923 C 13.75 20.337 13.414 20.673 13 20.673 Z"
        fill="#000000"/>
    <path
        id="path_2"
        d="M 13 4.5 C 8.313 4.5 4.5 8.313 4.5 13 C 4.5 16.424 6.537 19.494 9.69 20.83 C 9.784 20.87 9.886 20.897 9.996 20.897 C 10.41 20.897 10.746 20.561 10.746 20.147 C 10.746 19.837 10.558 19.572 10.29 19.457 C 7.685 18.36 6 15.826 6 13 C 6 9.14 9.14 6 13 6 C 16.86 6 20 9.14 20 13 C 20 15.825 18.317 18.358 15.712 19.454 C 15.439 19.566 15.245 19.834 15.245 20.147 C 15.245 20.561 15.581 20.897 15.995 20.897 C 16.1 20.897 16.199 20.875 16.289 20.837 C 19.455 19.51 21.5 16.433 21.5 13 C 21.5 8.313 17.687 4.5 13 4.5 Z M 17 22.75 C 17 23.164 16.66 23.5 16.243 23.5 L 9.757 23.5 C 9.339 23.5 9 23.164 9 22.75 C 9 22.336 9.34 22 9.757 22 L 16.243 22 C 16.661 22 17 22.336 17 22.75 Z M 16 25.25 C 16 25.664 15.66 26 15.243 26 L 10.757 26 C 10.339 26 10 25.664 10 25.25 C 10 24.836 10.34 24.5 10.757 24.5 L 15.243 24.5 C 15.661 24.5 16 24.836 16 25.25 Z"
        fill="#000000"/>
</svg>
